<svg xmlns="http://www.w3.org/2000/svg" xmlns:xlink="http://www.w3.org/1999/xlink" viewBox="0 0 400 221.89"><defs><style>.cls-1{fill:url(#linear-gradient);}.cls-2{font-size:90.5px;font-family:Tahoma-Bold, Tahoma;font-weight:700;opacity:0;}</style><linearGradient id="linear-gradient" x1="225.07" y1="188.63" x2="225.07" y2="111.92" gradientUnits="userSpaceOnUse"><stop offset="0" stop-color="#fff"/><stop offset="1"/></linearGradient></defs><g id="Layer_1" data-name="Layer 1"><image width="1280" height="375" transform="translate(0 0) scale(0.31)" xlink:href="../../../../../Desktop/1280px-Mass_Effect_logo.png"/></g><g id="Layer_2" data-name="Layer 2"><path class="cls-1" d="M35.17,185.25q-14.79,0-23.5-8.94T3,151.14q0-15.64,8.73-24.94t23.53-9.31a51.8,51.8,0,0,1,7.07.44,48.39,48.39,0,0,1,6,1.24,43.22,43.22,0,0,1,4.9,1.81q2.65,1.16,4.29,2v15.69H55.81c-.79-.71-1.8-1.55-3-2.54a38.83,38.83,0,0,0-4.11-2.9,27.46,27.46,0,0,0-5.06-2.4,16.76,16.76,0,0,0-5.77-1,18.44,18.44,0,0,0-6.56,1.13,15.66,15.66,0,0,0-5.68,3.91,18.72,18.72,0,0,0-4,6.8A29.35,29.35,0,0,0,20,151.18a28.43,28.43,0,0,0,1.63,10.32,18.61,18.61,0,0,0,4.29,6.74,15.69,15.69,0,0,0,5.72,3.58,18.94,18.94,0,0,0,6.3,1.11,18,18,0,0,0,6.23-1.09,24.19,24.19,0,0,0,5-2.41,32.59,32.59,0,0,0,3.89-2.78c1.12-.94,2.09-1.78,2.92-2.52h1.5V179.6l-4.2,1.92a38.43,38.43,0,0,1-4.9,1.83,53.87,53.87,0,0,1-5.79,1.42A44.66,44.66,0,0,1,35.17,185.25Z" transform="translate(0 0)"/><path class="cls-1" d="M128.06,184H107.91L89.57,159.85H83.65V184H67.21v-65.8H93.68a57.85,57.85,0,0,1,9.55.69,20.46,20.46,0,0,1,7.51,2.85,17.13,17.13,0,0,1,5.61,5.72,16.91,16.91,0,0,1,2.08,8.82q0,7.56-3.4,12.26a24,24,0,0,1-9.11,7.49Zm-26.6-45.64a9,9,0,0,0-.95-4.27,6.28,6.28,0,0,0-3.16-2.76,11.49,11.49,0,0,0-3.45-.84c-1.26-.12-2.84-.18-4.73-.18H83.65V148h4.73a34.61,34.61,0,0,0,5.85-.42,8.63,8.63,0,0,0,4.09-1.79,7.75,7.75,0,0,0,2.37-3A11.2,11.2,0,0,0,101.46,138.33Z" transform="translate(0 0)"/><path class="cls-1" d="M132.92,184v-65.8h44.5v12.55H149.36v11.54h25.85v12.55H149.36v16.61h28.06V184Z" transform="translate(0 0)"/><path class="cls-1" d="M273.49,118.17,256.83,184H238.71l-10.56-40.7L217.9,184H199.78l-16.66-65.8h17.15l9.06,44.15,11-44.15h16.4l10.47,44.15,9.55-44.15Z" transform="translate(0 0)"/><path class="cls-1" d="M281.62,184v-65.8h44.5v12.55H298.06v11.54h25.85v12.55H298.06v16.61h28.06V184Z" transform="translate(0 0)"/><path class="cls-1" d="M396.07,151.14a33.44,33.44,0,0,1-4,16.46,30.05,30.05,0,0,1-10.16,11.16A28.46,28.46,0,0,1,370.73,183a81.73,81.73,0,0,1-12.84.95H337.3v-65.8h20.41a90,90,0,0,1,13,.89,28.53,28.53,0,0,1,11.35,4.28,29.49,29.49,0,0,1,10.25,11.21A34.72,34.72,0,0,1,396.07,151.14Zm-17-.13a25.35,25.35,0,0,0-2.23-11.12,16.34,16.34,0,0,0-6.87-7.22,15.86,15.86,0,0,0-7.05-2q-3.69-.18-8.82-.18h-.3v41.18h.3q5.58,0,9.39-.19a15,15,0,0,0,7.27-2.37A16.39,16.39,0,0,0,377,162,25.75,25.75,0,0,0,379.1,151Z" transform="translate(0 0)"/><text class="cls-2" transform="translate(0 183.97)">CREWED</text></g></svg>